PathFileType	3	(X/Y/Z)	D:\Vicon Database\Healthy Subjects\S0040\Jan. 30, 2020\Force Plate Walk 7.trc
DataRate	CameraRate	NumFrames	NumMarkers	Units	OrigDataRate	OrigDataStartFrame	OrigNumFrames
100.0	100.0	5	53	mm	100.0	353	319	
Frame#	Time	sternum_cluster1			sternum_cluster2			sternum_cluster3			left_asis			right_asis			left_psis			right_psis			sacrum_cluster1			sacrum_cluster2			sacrum_cluster3			left_lat_femoral_epicondyle			left_anterior_thigh15			left_anterior_thigh25			left_anterior_thigh50			left_lateral_thigh25			left_lateral_thigh50			left_thigh_cluster1			left_thigh_cluster2			left_thigh_cluster3			left_fibular_head			left_tibial_tuberosity			left_anterior_shank30			left_lateral_malleolus			left_shank_cluster1			left_shank_cluster2			left_shank_cluster3			left_heel			left_metatarsal2			left_foot_cluster1			left_foot_cluster2			left_foot_cluster3			right_lat_femoral_epicondyle			right_anterior_thigh15			right_anterior_thigh25			right_anterior_thigh50			right_lateral_thigh25			right_lateral_thigh50			right_thigh_cluster1			right_thigh_cluster2			right_thigh_cluster3			right_fibular_head			right_tibial_tuberosity			right_lateral_distal_shank			right_anterior_shank30			right_lateral_malleolus			right_shank_cluster1			right_shank_cluster2			right_shank_cluster3			right_heel			right_metatarsal2			right_foot_cluster1			right_foot_cluster2			right_foot_cluster3			
		X1	Y1	Z1	X2	Y2	Z2	X3	Y3	Z3	X4	Y4	Z4	X5	Y5	Z5	X6	Y6	Z6	X7	Y7	Z7	X8	Y8	Z8	X9	Y9	Z9	X10	Y10	Z10	X11	Y11	Z11	X12	Y12	Z12	X13	Y13	Z13	X14	Y14	Z14	X15	Y15	Z15	X16	Y16	Z16	X17	Y17	Z17	X18	Y18	Z18	X19	Y19	Z19	X20	Y20	Z20	X21	Y21	Z21	X22	Y22	Z22	X23	Y23	Z23	X24	Y24	Z24	X25	Y25	Z25	X26	Y26	Z26	X27	Y27	Z27	X28	Y28	Z28	X29	Y29	Z29	X30	Y30	Z30	X31	Y31	Z31	X32	Y32	Z32	X33	Y33	Z33	X34	Y34	Z34	X35	Y35	Z35	X36	Y36	Z36	X37	Y37	Z37	X38	Y38	Z38	X39	Y39	Z39	X40	Y40	Z40	X41	Y41	Z41	X42	Y42	Z42	X43	Y43	Z43	X44	Y44	Z44	X45	Y45	Z45	X46	Y46	Z46	X47	Y47	Z47	X48	Y48	Z48	X49	Y49	Z49	X50	Y50	Z50	X51	Y51	Z51	X52	Y52	Z52	X53	Y53	Z53	
353	3.52	2065.9617	1446.3069	-151.22989	2055.2866	1418.2454	-142.27516	2054.1821	1421.3617	-180.29683	2093.0771	1069.8192	-39.364803	2086.8511	1071.8376	-287.41019	2256.3679	1086.0841	-85.762169	2254.1323	1092.1257	-203.3644	2262.988	1146.8022	-150.55125	2268.8774	1122.0297	-163.04407	2273.2163	1115.887	-124.24507	1978.6121	570.86987	-18.011974	1912.4855	677.81287	-63.881397	1936.3519	765.10437	-51.767197	2002.2661	885.84644	-39.422234	2033.5701	711.09851	6.8312583	2090.604	849.46027	34.297081	2072.5769	804.93152	39.990639	2063.5549	776.21814	36.614914	2033.4606	798.7981	40.754227	1961.6715	495.77057	-11.697347	1904.5465	491.46976	-64.791908	1912.8577	238.27878	-73.293159	1952.775	116.59904	-43.166924	1901.0585	435.6481	-92.765198	1894.9712	408.53952	-83.564789	1908.8374	407.36465	-119.87012	2022.006	73.614922	-83.844421	1805.0121	101.39628	-77.235382	1868.6338	142.5564	-69.199371	1843.6577	128.02362	-59.569244	1839.3684	136.20947	-96.933411	2241.9568	536.87866	-284.23267	2141.9795	606.29376	-228.7892	2102.9426	681.49945	-231.54912	2069.5361	810.08173	-249.45584	2203.1909	692.3241	-313.68884	2172.6677	836.27075	-345.013	2190.2087	785.19934	-348.52753	2184.0815	757.53534	-343.44644	2222.7612	763.74463	-339.74432	2265.948	471.82233	-285.03137	2214.3894	454.44531	-239.30652	2322.4822	206.94263	-263.18121	2275.8237	213.83929	-216.99606	2343.678	105.40524	-245.70752	2235.3198	393.86899	-182.35773	2245.906	367.74515	-174.5519	2222.4094	361.39069	-202.69733	2421.3228	72.420349	-211.32663	2200.9646	68.084496	-210.33163	2257.0837	116.08218	-204.49208	2232.6958	101.6585	-196.80692	2233.4651	106.7875	-234.23061
354	3.53	2051.4641	1443.8997	-150.96646	2040.8383	1415.9216	-141.96259	2039.6938	1418.9696	-180.06151	2078.7026	1067.7627	-39.290043	2072.7476	1069.4314	-287.4938	2242.2544	1084.1787	-85.416611	2239.5901	1089.8499	-202.99454	2248.6448	1144.7245	-150.17278	2254.8049	1119.9111	-162.8154	2259.0801	1113.7349	-123.99623	1963.9924	568.66071	-17.895847	1899.8215	675.30011	-64.145798	1923.2009	762.18439	-51.978302	1988.0905	883.00977	-39.249809	2020.4393	708.7619	7.3979664	2076.5962	847.35419	34.751549	2059.1296	802.55206	40.142437	2050.0857	774.01727	36.537605	2019.9287	796.47821	41.389816	1943.0195	494.01486	-11.059197	1886.9751	492.20404	-65.316994	1879.759	239.8446	-72.942513	1911.1857	115.62774	-41.863518	1880.3947	437.58279	-93.262772	1872.9926	410.63287	-84.240768	1887.6455	408.5116	-120.06961	1978.2991	68.101089	-81.610336	1763.0829	110.01006	-77.520119	1829.4788	146.67334	-68.968254	1803.2977	133.76006	-59.600914	1799.9917	142.22754	-96.97757	2237.3267	537.35779	-283.40036	2135.7778	604.3941	-228.18008	2094.6221	679.02673	-230.98581	2058.4153	806.8941	-249.42365	2194.8135	691.82153	-312.10373	2161.8623	835.32898	-344.74481	2180.3831	784.38843	-348.30194	2174.7786	756.63562	-342.73337	2213.2952	763.78131	-339.07452	2262.0718	472.46063	-284.42902	2210.561	454.4032	-238.64655	2321.0073	207.97945	-262.59854	2274.0117	214.54179	-216.61624	2342.929	106.67187	-245.0999	2232.4336	393.48895	-181.3615	2242.605	367.9866	-174.08659	2218.9824	362.26123	-202.94186	2420.636	73.889282	-210.88185	2200.5486	67.620735	-210.28011	2256.4224	115.80701	-204.57158	2232.0674	101.5295	-196.69473	2232.7129	106.67642	-234.0761
355	3.54	2036.9213	1441.4816	-150.7372	2026.3422	1413.3647	-141.69232	2025.183	1416.4924	-179.78186	2064.2461	1065.4761	-39.10017	2058.3867	1066.9277	-287.34637	2227.9072	1081.7278	-85.051163	2225.6672	1087.7859	-202.75522	2234.4282	1142.2632	-149.85075	2240.5359	1117.5392	-162.47534	2244.8582	1111.3967	-123.62457	1948.9545	566.05823	-17.021336	1887.3553	672.11871	-64.232246	1910.4155	758.44037	-52.007339	1973.8301	879.54578	-38.873077	2008.0004	705.65668	8.1569891	2062.4753	844.95575	35.693424	2045.6538	800.28595	40.563126	2036.9155	771.4989	37.116493	2006.3444	793.7605	41.857075	1924.3037	492.30002	-10.245366	1869.7054	492.78769	-65.91304	1847.9385	241.67671	-72.608971	1871.269	115.8763	-40.386471	1860.8812	438.87589	-93.543434	1850.7631	413.04919	-84.63176	1866.9655	409.39389	-120.12225	1935.9054	64.095657	-79.288979	1723.6135	119.05255	-77.742989	1792.1172	151.63849	-68.590904	1765.0618	140.27342	-59.485909	1762.6974	148.85803	-96.85524	2232.0142	537.7002	-283.22842	2128.9768	602.69257	-227.48558	2085.8162	676.73328	-230.4982	2047.1719	803.79187	-249.53221	2186.759	691.32446	-312.23386	2150.4973	834.01624	-344.25098	2170.3716	783.72565	-347.84503	2165.0269	755.59998	-342.37045	2203.0776	763.10468	-338.15353	2257.6238	473.10446	-283.6983	2206.2961	454.30246	-238.13916	2319.5139	209.29225	-261.8923	2272.0498	215.08188	-216.3618	2342.1206	107.80735	-244.53493	2228.7014	394.65292	-180.71536	2238.7583	368.16602	-173.66771	2215.3267	361.95175	-202.43929	2419.918	75.487274	-210.44209	2200.188	66.897209	-210.17191	2255.3657	116.07108	-204.17029	2231.1904	101.34748	-196.55501	2231.8467	106.50735	-233.85335
356	3.55	2022.459	1438.8131	-150.30264	2011.8959	1410.6782	-141.35645	2010.6226	1413.8153	-179.41566	2049.668	1063.0795	-38.892258	2044.5424	1064.064	-287.34375	2213.4653	1079.2117	-84.63681	2211.2847	1085.3745	-202.33	2220.1858	1139.8588	-149.38556	2226.1184	1115.0531	-162.00551	2230.4314	1108.9011	-123.16492	1934.0588	563.43945	-15.835529	1875.7125	668.10461	-64.45665	1897.7941	754.11572	-51.981827	1959.3483	875.81592	-38.399803	1995.2085	702.59637	9.4957275	2048.5872	842.29871	36.245289	2032.3079	797.91113	41.255787	2023.7765	769.12952	38.478577	1993.2771	790.8006	42.492676	1905.7971	490.65726	-9.3625822	1852.6814	493.24026	-66.428787	1817.8835	244.00529	-71.824562	1833.4479	117.14309	-38.772411	1841.5638	440.12521	-93.404465	1830.2886	414.72073	-84.576454	1846.5804	410.12207	-119.99562	1895.4366	61.341015	-76.916618	1686.7917	128.52992	-77.851105	1756.7823	157.17001	-67.993462	1729.0992	147.3033	-59.075592	1727.7035	155.76559	-96.619698	2225.9514	537.80072	-282.50989	2121.3572	601.10193	-226.73926	2076.022	674.42273	-229.99422	2035.5825	800.73541	-249.47556	2177.6416	690.633	-311.65726	2138.8228	832.45795	-343.6412	2159.7922	782.82965	-347.49683	2154.6528	754.62372	-342.04114	2192.8025	762.70105	-337.59549	2252.4387	473.67078	-283.27533	2201.2805	454.00818	-237.58348	2317.4302	210.55922	-261.3512	2269.9543	215.80267	-215.89172	2340.7441	109.05311	-244.14966	2224.2649	394.71487	-180.61337	2234.4412	368.30063	-173.25085	2211.8064	361.57416	-201.84662	2419.1606	77.37986	-210.00523	2199.7224	66.483856	-210.06322	2254.3652	116.21419	-203.8876	2230.314	101.25073	-196.33708	2231.1335	106.48425	-233.61604
357	3.56	2007.8518	1436.0852	-150.02267	1997.3063	1407.9786	-140.95119	1995.9762	1411.108	-179.00359	2034.9541	1060.5096	-38.634632	2029.0861	1061.6619	-286.76639	2198.8667	1076.6619	-84.105942	2196.7876	1082.8999	-201.81943	2205.8811	1137.4163	-148.86595	2211.6123	1112.6029	-161.4612	2215.9063	1106.3639	-122.619	1919.3817	560.78949	-14.655919	1863.9612	663.8363	-64.765671	1885.2994	749.49109	-51.888962	1944.7904	871.91357	-37.844791	1982.3099	699.20129	11.217652	2034.7013	839.57764	36.939655	2019.0232	795.09192	42.351875	2010.2977	765.93884	39.769917	1979.9004	787.99402	43.598995	1887.7507	489.21576	-8.4774752	1835.5284	493.73199	-66.627434	1789.3909	246.64421	-70.575623	1798.1084	119.21636	-37.256489	1822.2692	441.37738	-93.019501	1809.8403	416.43872	-84.303612	1826.166	411.19254	-119.26149	1856.6937	59.566833	-74.393822	1652.5537	138.28433	-77.7173	1723.9575	162.83011	-67.413544	1695.6533	154.59843	-58.676628	1695.1085	162.94522	-96.200005	2218.937	537.74194	-281.99551	2112.9404	599.38196	-226.11723	2067.0227	671.76636	-229.43015	2023.552	797.66937	-249.4736	2167.7202	689.80701	-311.42526	2127.2126	831.27405	-343.63785	2148.8687	781.91791	-346.75201	2144.3203	753.28149	-341.23032	2182.0637	762.39044	-337.1145	2246.6936	474.22357	-282.5332	2195.5691	453.76099	-237.20404	2315.0317	211.83298	-261.03012	2267.3386	216.48849	-215.5428	2339.8145	110.38738	-243.69586	2217.9331	393.71497	-180.7242	2229.8196	368.31689	-173.06772	2207.2324	361.36182	-201.51385	2418.5239	79.638458	-209.35466	2199.2275	66.333641	-209.79564	2253.1604	116.44048	-203.776	2229.2161	101.00503	-196.27118	2230.0764	106.42052	-233.47432
